<?xml version="1.0" encoding="UTF-8"?>
<svg version="1.1" xmlns="http://www.w3.org/2000/svg" width="500" height="500">
<path d="M0 0 C0 0.66 0 1.32 0 2 C0.61875 2.309375 1.2375 2.61875 1.875 2.9375 C3.25 3.625 4.625 4.3125 6 5 C6 5.66 6 6.32 6 7 C6.84498047 7.31904297 6.84498047 7.31904297 7.70703125 7.64453125 C10.82384254 9.48700743 12.50331695 11.81015472 14.6875 14.6875 C15.47511719 15.70199219 16.26273437 16.71648437 17.07421875 17.76171875 C19.18548978 21.31190878 19.78259071 23.89955976 20 28 C19.67 28.33 19.34 28.66 19 29 C19.51949219 29.268125 20.03898437 29.53625 20.57421875 29.8125 C26.05248489 32.89086027 29.44297392 36.20553746 32 42 C33.97608362 49.58967149 34.33233634 58.94056369 31.125 66.21875 C28.95018447 69.66220791 26.02068883 72.30685574 23 75 C20.67142196 76.91912899 20.67142196 76.91912899 20.59375 80.2578125 C18.88464817 91.02965164 8.83379887 100.52982904 0.4765625 106.93359375 C-14.96423142 117.46140779 -32.75825949 120.58723296 -51 118 C-68.26784851 114.50847898 -84.24048731 103.66318941 -94 89 C-95.8236944 85.14615523 -96.18176787 83.13618753 -95 79 C-92.02746454 78.81800803 -90.65196157 78.77281779 -88 80 C-85.99931022 82.56590708 -84.44269275 85.268036 -82.8046875 88.078125 C-76.26495512 98.66626314 -65.66854949 104.67310074 -54.0390625 108.32421875 C-50.05281174 109.21062155 -46.34158476 109.26378654 -42.27734375 109.04296875 C-40 109 -40 109 -37 110 C-35.24661697 109.93857575 -33.49516278 109.80536599 -31.75 109.625 C-30.77933594 109.52574219 -29.80867188 109.42648437 -28.80859375 109.32421875 C-25.52635541 108.94532336 -22.2646641 108.50783664 -19 108 C-19 107.34 -19 106.68 -19 106 C-20.485 105.505 -20.485 105.505 -22 105 C-23.45007937 102.31735316 -24.11784055 100.72668339 -23.625 97.6875 C-23.41875 97.130625 -23.2125 96.57375 -23 96 C-19.535 95.505 -19.535 95.505 -16 95 C-14.35173889 97.96687001 -13.55728913 100.65626525 -13 104 C-12.01 104 -11.02 104 -10 104 C-10 103.34 -10 102.68 -10 102 C-4.25 99 -4.25 99 -2 99 C-2 98.34 -2 97.68 -2 97 C-1.34 97 -0.68 97 0 97 C-0.78375 96.2575 -1.5675 95.515 -2.375 94.75 C-4.56504531 92.45566682 -5.82731386 90.87841142 -7 88 C-5.75 86 -5.75 86 -4 84 C-2.68 84 -1.36 84 0 84 C0 84.66 0 85.32 0 86 C0.66 86 1.32 86 2 86 C3.625 87.5 3.625 87.5 5 89 C5.61875 88.175 6.2375 87.35 6.875 86.5 C7.57625 85.675 8.2775 84.85 9 84 C9.66 84 10.32 84 11 84 C11.144375 83.38125 11.28875 82.7625 11.4375 82.125 C12 80 12 80 13 78 C12.01 78.495 12.01 78.495 11 79 C7.19264032 79.2414344 3.3766629 79.18519537 -0.4375 79.1875 C-1.50033203 79.19974609 -2.56316406 79.21199219 -3.65820312 79.22460938 C-4.67720703 79.22654297 -5.69621094 79.22847656 -6.74609375 79.23046875 C-7.68122803 79.23457764 -8.6163623 79.23868652 -9.57983398 79.24291992 C-12 79 -12 79 -15 77 C-15.22137393 74.37302936 -15.28162025 71.99106036 -15.1875 69.375 C-15.16719727 68.31539062 -15.16719727 68.31539062 -15.14648438 67.234375 C-15.1111104 65.48925872 -15.05730221 63.74453392 -15 62 C-16.0415625 62.13277344 -17.083125 62.26554687 -18.15625 62.40234375 C-27.07082515 63.50946464 -35.92896497 64.32070865 -44.90234375 64.75390625 C-47.90828117 64.79790132 -47.90828117 64.79790132 -50 66 C-33.665 66.495 -33.665 66.495 -17 67 C-16 71 -16 71 -17 73 C-17.99 73 -18.98 73 -20 73 C-19.505 76.465 -19.505 76.465 -19 80 C-20.75 81.5625 -20.75 81.5625 -23 83 C-25.125 82.875 -25.125 82.875 -27 82 C-29 79 -29 79 -29 74 C-35.93 73.505 -35.93 73.505 -43 73 C-42.505 76.465 -42.505 76.465 -42 80 C-43.75 81.5625 -43.75 81.5625 -46 83 C-49.00388632 82.73495121 -49.83304275 82.16695725 -52 80 C-52.125 76.375 -52.125 76.375 -52 73 C-52.639375 72.835 -53.27875 72.67 -53.9375 72.5 C-56 71 -56 71 -56.625 67.5 C-56.68042969 66.7884375 -56.73585937 66.076875 -56.79296875 65.34375 C-57.40073724 58.46335205 -59.27066169 51.67030492 -61 45 C-61.18175781 45.60328125 -61.36351562 46.2065625 -61.55078125 46.828125 C-64.17647059 55.17647059 -64.17647059 55.17647059 -67 58 C-67.66 58 -68.32 58 -69 58 C-68.86243837 64.32783485 -66.35200658 67.74140004 -62.49609375 72.66796875 C-61 75 -61 75 -61 79 C-74.79839786 79.93724967 -74.79839786 79.93724967 -79.125 76.5625 C-80.10546875 74.92578125 -80.10546875 74.92578125 -81 73 C-81.80119607 71.41091676 -82.61421424 69.82775196 -83.4375 68.25 C-83.96150391 67.11304688 -83.96150391 67.11304688 -84.49609375 65.953125 C-86.25333778 63.29473064 -86.25333778 63.29473064 -92 62 C-92 67.28 -92 72.56 -92 78 C-96.95 78 -101.9 78 -107 78 C-107.02464156 70.89754492 -107.042832 63.79511449 -107.05493164 56.69262695 C-107.05997349 54.27432828 -107.06680678 51.85603267 -107.07543945 49.43774414 C-107.08751157 45.97020717 -107.09322963 42.50271034 -107.09765625 39.03515625 C-107.10281754 37.94662857 -107.10797882 36.85810089 -107.11329651 35.73658752 C-107.11337204 34.73562546 -107.11344757 33.73466339 -107.11352539 32.70336914 C-107.115746 31.81734512 -107.11796661 30.93132111 -107.12025452 30.01844788 C-107 28 -107 28 -106 27 C-101.83394902 26.7564576 -97.66427461 26.77141815 -93.49169922 26.75976562 C-91.40420538 26.75013474 -89.31772805 26.71916262 -87.23046875 26.6875 C-85.89063083 26.68096235 -84.55078587 26.67571488 -83.2109375 26.671875 C-81.99712402 26.6625293 -80.78331055 26.65318359 -79.53271484 26.64355469 C-73.89596844 27.21229344 -69.36677862 29.33190596 -65 33 C-65.495 29.535 -65.495 29.535 -66 26 C-68.31 25.67 -70.62 25.34 -73 25 C-73.33 23.35 -73.66 21.7 -74 20 C-70.83686776 18.9597753 -69.04328955 19.00861649 -65.9375 20.1875 C-65.26589844 20.42855469 -64.59429687 20.66960937 -63.90234375 20.91796875 C-62 22 -62 22 -60.6875 24.09765625 C-59.06422433 26.35987853 -59.06422433 26.35987853 -55.78515625 26.328125 C-54.55667969 26.30234375 -53.32820313 26.2765625 -52.0625 26.25 C-45.51674107 26.50669643 -45.51674107 26.50669643 -43.19140625 28.7265625 C-41.58415489 31.96461469 -41 34.37619593 -41 38 C-40.38125 38.0825 -39.7625 38.165 -39.125 38.25 C-37 39 -37 39 -35.75 41.0625 C-35.5025 41.701875 -35.255 42.34125 -35 43 C-32.09650135 41.29029522 -31.10978162 40.3059958 -29.953125 37.08203125 C-29.72109375 36.00308594 -29.4890625 34.92414063 -29.25 33.8125 C-28.88648438 32.18248047 -28.88648438 32.18248047 -28.515625 30.51953125 C-28.34546875 29.68808594 -28.1753125 28.85664063 -28 28 C-27.01 28 -26.02 28 -25 28 C-25 27.34 -25 26.68 -25 26 C-21.38026598 24.68373308 -18.90432869 24 -15 24 C-15 24.99 -15 25.98 -15 27 C-6.42 26.67 2.16 26.34 11 26 C10.01 23.525 10.01 23.525 9 21 C8.34 21 7.68 21 7 21 C6.38125 20.030625 5.7625 19.06125 5.125 18.0625 C-2.67797805 6.88954013 -15.78114929 1.52374646 -28.578125 -1.63671875 C-42.61277723 -3.74191659 -58.2111647 -1.175301 -70 7 C-70.69609375 7.54527344 -71.3921875 8.09054688 -72.109375 8.65234375 C-74 10 -74 10 -76 10 C-76 10.66 -76 11.32 -76 12 C-76.66 12 -77.32 12 -78 12 C-78 12.66 -78 13.32 -78 14 C-78.66 14 -79.32 14 -80 14 C-80.226875 14.515625 -80.45375 15.03125 -80.6875 15.5625 C-84.34943917 22.36324418 -84.34943917 22.36324418 -87 25 C-90.6875 26.0625 -90.6875 26.0625 -94 26 C-94.66 25.34 -95.32 24.68 -96 24 C-91.65167418 13.79088719 -84.2135154 6.06152329 -75 0 C-74.25234375 -0.51304687 -73.5046875 -1.02609375 -72.734375 -1.5546875 C-51.31349769 -15.44370795 -21.04133358 -14.30658486 0 0 Z M13 27 C17 28 17 28 17 28 Z M-92 41 C-92 43.97 -92 46.94 -92 50 C-89.70890403 50.08075665 -87.41700733 50.13907731 -85.125 50.1875 C-83.84882813 50.22230469 -82.57265625 50.25710937 -81.2578125 50.29296875 C-80.18273437 50.19628906 -79.10765625 50.09960938 -78 50 C-75.70362221 47.24104365 -75.70362221 47.24104365 -76.25 44.4375 C-76.83808052 41.84999433 -76.83808052 41.84999433 -79 40 C-81.60047934 39.71853096 -81.60047934 39.71853096 -84.5 39.8125 C-85.4796875 39.81894531 -86.459375 39.82539063 -87.46875 39.83203125 C-89.99369384 39.83559274 -89.99369384 39.83559274 -92 41 Z M0 40 C0 48.58 0 57.16 0 66 C10.00374155 66.41178635 10.00374155 66.41178635 16.75 61.3125 C18.94468523 57.25233233 19.45517872 53.27995768 18.5625 48.80859375 C17.51017079 45.56191897 16.42609461 43.42609461 14 41 C9.78779356 39.4202491 9.78779356 39.4202491 0 40 Z " fill="#9DA1A4" transform="translate(291,192)"/>
<path d="M0 0 C4.61208965 0.40022266 8.1264777 0.97673102 11.1875 4.5625 C14.75448349 7.65388569 16.42463704 7.25512438 21.0625 7.3125 C27.49975545 7.52145803 27.49975545 7.52145803 29.80078125 9.72265625 C31.41714231 12.96125606 32 15.37213911 32 19 C32.61875 19.0825 33.2375 19.165 33.875 19.25 C36 20 36 20 37.25 22.0625 C37.62125 23.0215625 37.62125 23.0215625 38 24 C40.90349865 22.29029522 41.89021838 21.3059958 43.046875 18.08203125 C43.27890625 17.00308594 43.5109375 15.92414063 43.75 14.8125 C44.11351562 13.18248047 44.11351562 13.18248047 44.484375 11.51953125 C44.65453125 10.68808594 44.8246875 9.85664063 45 9 C45.99 9 46.98 9 48 9 C48 8.34 48 7.68 48 7 C51.61973402 5.68373308 54.09567131 5 58 5 C58.495 9.455 58.495 9.455 59 14 C60.32 13.67 61.64 13.34 63 13 C63.99 13.66 64.98 14.32 66 15 C65.88512252 16.58409994 65.75765492 18.16728963 65.625 19.75 C65.55539062 20.63171875 65.48578125 21.5134375 65.4140625 22.421875 C64.99415985 25.03636322 64.18733995 26.66130009 63 29 C62.56901247 30.90485849 62.19607236 32.82356582 61.875 34.75 C61.70742188 35.73484375 61.53984375 36.7196875 61.3671875 37.734375 C61.18542969 38.85585937 61.18542969 38.85585937 61 40 C59.515 40.495 59.515 40.495 58 41 C58 41.66 58 42.32 58 43 C48.03454895 44.27034834 38.13406472 45.26938998 28.09765625 45.75390625 C25.09171883 45.79790132 25.09171883 45.79790132 23 47 C39.335 47.495 39.335 47.495 56 48 C57 52 57 52 56 54 C55.01 54 54.02 54 53 54 C53.495 57.465 53.495 57.465 54 61 C52.25 62.5625 52.25 62.5625 50 64 C47.875 63.875 47.875 63.875 46 63 C44 60 44 60 44 55 C37.07 54.505 37.07 54.505 30 54 C30.495 57.465 30.495 57.465 31 61 C29.25 62.5625 29.25 62.5625 27 64 C23.99611368 63.73495121 23.16695725 63.16695725 21 61 C20.875 57.375 20.875 57.375 21 54 C20.360625 53.835 19.72125 53.67 19.0625 53.5 C17 52 17 52 16.375 48.5 C16.31957031 47.7884375 16.26414063 47.076875 16.20703125 46.34375 C15.59926276 39.46335205 13.72933831 32.67030492 12 26 C11.81824219 26.60328125 11.63648438 27.2065625 11.44921875 27.828125 C8.82352941 36.17647059 8.82352941 36.17647059 6 39 C5.34 39 4.68 39 4 39 C4.13756163 45.32783485 6.64799342 48.74140004 10.50390625 53.66796875 C12 56 12 56 12 60 C-1.79839786 60.93724967 -1.79839786 60.93724967 -6.125 57.5625 C-7.10546875 55.92578125 -7.10546875 55.92578125 -8 54 C-8.80119607 52.41091676 -9.61421424 50.82775196 -10.4375 49.25 C-10.96150391 48.11304688 -10.96150391 48.11304688 -11.49609375 46.953125 C-13.25333778 44.29473064 -13.25333778 44.29473064 -19 43 C-19 48.28 -19 53.56 -19 59 C-23.95 59 -28.9 59 -34 59 C-34.02464156 51.89754492 -34.042832 44.79511449 -34.05493164 37.69262695 C-34.05997349 35.27432828 -34.06680678 32.85603267 -34.07543945 30.43774414 C-34.08751157 26.97020717 -34.09322963 23.50271034 -34.09765625 20.03515625 C-34.10281754 18.94662857 -34.10797882 17.85810089 -34.11329651 16.73658752 C-34.11337204 15.73562546 -34.11344757 14.73466339 -34.11352539 13.70336914 C-34.115746 12.81734512 -34.11796661 11.93132111 -34.12025452 11.01844788 C-34 9 -34 9 -33 8 C-28.83394902 7.7564576 -24.66427461 7.77141815 -20.49169922 7.75976562 C-18.40420538 7.75013474 -16.31772805 7.71916262 -14.23046875 7.6875 C-12.89063083 7.68096235 -11.55078587 7.67571488 -10.2109375 7.671875 C-8.99712402 7.6625293 -7.78331055 7.65318359 -6.53271484 7.64355469 C-0.89596844 8.21229344 3.63322138 10.33190596 8 14 C7.505 10.535 7.505 10.535 7 7 C4.69 6.67 2.38 6.34 0 6 C-0.38218767 4.34385343 -0.71395102 2.67542976 -1 1 C-0.67 0.67 -0.34 0.34 0 0 Z M-19 22 C-19 24.97 -19 27.94 -19 31 C-16.70890403 31.08075665 -14.41700733 31.13907731 -12.125 31.1875 C-10.84882813 31.22230469 -9.57265625 31.25710937 -8.2578125 31.29296875 C-7.18273437 31.19628906 -6.10765625 31.09960938 -5 31 C-2.70362221 28.24104365 -2.70362221 28.24104365 -3.25 25.4375 C-3.83808052 22.84999433 -3.83808052 22.84999433 -6 21 C-8.60047934 20.71853096 -8.60047934 20.71853096 -11.5 20.8125 C-12.4796875 20.81894531 -13.459375 20.82539063 -14.46875 20.83203125 C-16.99369384 20.83559274 -16.99369384 20.83559274 -19 22 Z " fill="#48B0B8" transform="translate(218,211)"/>
<path d="M0 0 C2.08749383 -0.00963088 4.17397117 -0.040603 6.26123047 -0.07226562 C7.60106839 -0.07880328 8.94091335 -0.08405075 10.28076172 -0.08789062 C11.4945752 -0.09723633 12.70838867 -0.10658203 13.95898438 -0.11621094 C20.6186061 0.55573431 25.05538045 3.15151579 29.49169922 8.24023438 C31.0491361 11.35510814 30.75856153 14.63599246 30.80419922 18.05273438 C30.83320313 18.76494141 30.86220703 19.47714844 30.89208984 20.2109375 C30.93720914 23.96278012 30.61194803 26.04907595 28.59716797 29.25195312 C26.49169922 31.24023438 26.49169922 31.24023438 24.49169922 31.24023438 C24.62926085 37.56806922 27.13969264 40.98163442 30.99560547 45.90820312 C32.49169922 48.24023438 32.49169922 48.24023438 32.49169922 52.24023438 C18.69330135 53.17748404 18.69330135 53.17748404 14.36669922 49.80273438 C13.38623047 48.16601562 13.38623047 48.16601562 12.49169922 46.24023438 C11.69050315 44.65115113 10.87748498 43.06798634 10.05419922 41.49023438 C9.53019531 40.35328125 9.53019531 40.35328125 8.99560547 39.19335938 C7.23836144 36.53496502 7.23836144 36.53496502 1.49169922 35.24023438 C1.49169922 40.52023437 1.49169922 45.80023438 1.49169922 51.24023438 C-3.45830078 51.24023438 -8.40830078 51.24023438 -13.50830078 51.24023438 C-13.53294234 44.1377793 -13.55113278 37.03534887 -13.56323242 29.93286133 C-13.56827427 27.51456265 -13.57510756 25.09626704 -13.58374023 22.67797852 C-13.59581235 19.21044154 -13.60153041 15.74294471 -13.60595703 12.27539062 C-13.61111832 11.18686295 -13.6162796 10.09833527 -13.62159729 8.9768219 C-13.62167282 7.97585983 -13.62174835 6.97489777 -13.62182617 5.94360352 C-13.62404678 5.0575795 -13.6262674 4.17155548 -13.6285553 3.25868225 C-13.3018044 -2.22576583 -4.10870058 0.01147415 0 0 Z M1.49169922 14.24023438 C1.49169922 17.21023437 1.49169922 20.18023437 1.49169922 23.24023438 C3.78279518 23.32099102 6.07469189 23.37931168 8.36669922 23.42773438 C9.64287109 23.46253906 10.91904297 23.49734375 12.23388672 23.53320312 C13.30896484 23.43652344 14.38404297 23.33984375 15.49169922 23.24023438 C17.78807701 20.48127803 17.78807701 20.48127803 17.24169922 17.67773438 C16.6536187 15.09022871 16.6536187 15.09022871 14.49169922 13.24023438 C11.89121988 12.95876533 11.89121988 12.95876533 8.99169922 13.05273438 C8.01201172 13.05917969 7.03232422 13.065625 6.02294922 13.07226562 C3.49800538 13.07582711 3.49800538 13.07582711 1.49169922 14.24023438 Z " fill="#424F93" transform="translate(197.50830078125,218.759765625)"/>
<path d="M0 0 C1.67542976 0.28604898 3.34385343 0.61781233 5 1 C5.25 7.625 5.25 7.625 3 11 C2.66073053 13.33247761 2.32759934 15.66585471 2 18 C1.34964186 19.34136367 0.6837045 20.67532254 0 22 C-0.38290462 23.99110401 -0.72604615 25.99100513 -1 28 C-5.44147569 28.85916096 -9.62769824 29.11697565 -14.1484375 29.09765625 C-15.13452499 29.09553383 -15.13452499 29.09553383 -16.14053345 29.09336853 C-18.21873731 29.08781762 -20.29682927 29.07527465 -22.375 29.0625 C-23.79296718 29.05747864 -25.21093607 29.05291685 -26.62890625 29.04882812 C-30.08597322 29.03786437 -33.54297567 29.02063421 -37 29 C-37.66 30.32 -38.32 31.64 -39 33 C-39.66 32.67 -40.32 32.34 -41 32 C-40.71848913 30.68528432 -40.42446661 29.37324233 -40.125 28.0625 C-39.96257812 27.33160156 -39.80015625 26.60070312 -39.6328125 25.84765625 C-39 24 -39 24 -37 23 C-37.04125 22.0925 -37.0825 21.185 -37.125 20.25 C-36.9558539 15.85220152 -35.89676527 14.04140483 -33.0625 10.75 C-31 9 -31 9 -28 9 C-28.33 10.65 -28.66 12.3 -29 14 C-23.555 13.01 -23.555 13.01 -18 12 C-18.99 13.65 -19.98 15.3 -21 17 C-17.27385847 15.88145414 -17.27385847 15.88145414 -15 13 C-15.66 12.67 -16.32 12.34 -17 12 C-16.25 9.5625 -16.25 9.5625 -15 7 C-12.84657966 6.12517299 -11.30989225 6 -9 6 C-8.38125 5.360625 -7.7625 4.72125 -7.125 4.0625 C-4.93274811 1.93472611 -3.91917272 1.50330564 -1 1 C-0.67 0.67 -0.34 0.34 0 0 Z " fill="#3BAFB3" transform="translate(277,226)"/>
<path d="M0 0 C0.33 0 0.66 0 1 0 C1.33 12.54 1.66 25.08 2 38 C2 25.79 2 13.58 2 1 C6.18730624 -0.04682656 9.97856931 -0.11155353 14.25 -0.0625 C14.99507812 -0.05798828 15.74015625 -0.05347656 16.5078125 -0.04882812 C18.3385764 -0.03709246 20.16929873 -0.0191585 22 0 C23 4.75 23 4.75 23 7 C24.32 7.66 25.64 8.32 27 9 C23.32307787 10.17661508 19.8361222 10.14475933 16 10 C15.67 9.67 15.34 9.34 15 9 C13.71553081 11.56893838 13.67022856 13.76576337 13.4375 16.625 C13.293125 18.39875 13.14875 20.1725 13 22 C18.28 22 23.56 22 29 22 C28.34 22.33 27.68 22.66 27 23 C26.67 23.99 26.34 24.98 26 26 C26 25.34 26 24.68 26 24 C22.04 24.495 22.04 24.495 18 25 C18.66 26.32 19.32 27.64 20 29 C19.401875 29.144375 18.80375 29.28875 18.1875 29.4375 C16.43849596 29.8872439 14.71322977 30.42892341 13 31 C13 36.94 13 42.88 13 49 C8.71 49 4.42 49 0 49 C0 32.83 0 16.66 0 0 Z " fill="#2C3B86" transform="translate(185,221)"/>
<path d="M0 0 C0 0.66 0 1.32 0 2 C0.61875 2.28875 1.2375 2.5775 1.875 2.875 C4 4 4 4 6 6 C1.83333333 7.38888889 1.83333333 7.38888889 -0.875 6.125 C-1.57625 5.75375 -2.2775 5.3825 -3 5 C-3.7425 4.62875 -4.485 4.2575 -5.25 3.875 C-5.8275 3.58625 -6.405 3.2975 -7 3 C-7 2.01 -7 1.02 -7 0 C-7.99 0.33 -8.98 0.66 -10 1 C-10.495 0.2884375 -10.495 0.2884375 -11 -0.4375 C-13.47700413 -2.37265948 -15.5865712 -2.48446514 -18.671875 -2.69140625 C-21 -3 -21 -3 -24.03125 -4.015625 C-29.17879837 -5.54376034 -34.42782125 -5.25109836 -39.75 -5.1875 C-40.79027344 -5.18685547 -41.83054688 -5.18621094 -42.90234375 -5.18554688 C-48.54256259 -5.21254888 -48.54256259 -5.21254888 -54 -4 C-54.33 -3.34 -54.66 -2.68 -55 -2 C-53.35 -2 -51.7 -2 -50 -2 C-50 -1.67 -50 -1.34 -50 -1 C-50.82242188 -0.78085938 -51.64484375 -0.56171875 -52.4921875 -0.3359375 C-59.29634559 1.59688339 -65.05477871 3.84491294 -70.9765625 7.73046875 C-73 9 -73 9 -76 10 C-76 10.66 -76 11.32 -76 12 C-76.66 12 -77.32 12 -78 12 C-78 12.66 -78 13.32 -78 14 C-78.66 14 -79.32 14 -80 14 C-80.226875 14.515625 -80.45375 15.03125 -80.6875 15.5625 C-84.34943917 22.36324418 -84.34943917 22.36324418 -87 25 C-90.6875 26.0625 -90.6875 26.0625 -94 26 C-94.66 25.34 -95.32 24.68 -96 24 C-91.65167418 13.79088719 -84.2135154 6.06152329 -75 0 C-74.25234375 -0.51304687 -73.5046875 -1.02609375 -72.734375 -1.5546875 C-51.31349769 -15.44370795 -21.04133358 -14.30658486 0 0 Z " fill="#B1B3C0" transform="translate(291,192)"/>
<path d="M0 0 C3.00059832 0.31132036 3.87454392 0.84714238 5.82421875 3.22265625 C6.43910156 4.15980469 7.05398437 5.09695313 7.6875 6.0625 C15.87010127 17.77365795 26.12667961 24.70831777 40 28 C42.94783879 28.20342677 45.77409358 28.20316966 48.72265625 28.04296875 C51 28 51 28 54 29 C55.75338303 28.93857575 57.50483722 28.80536599 59.25 28.625 C60.22066406 28.52574219 61.19132812 28.42648437 62.19140625 28.32421875 C65.47364459 27.94532336 68.7353359 27.50783664 72 27 C72 26.34 72 25.68 72 25 C70.515 24.505 70.515 24.505 69 24 C67.54992063 21.31735316 66.88215945 19.72668339 67.375 16.6875 C67.58125 16.130625 67.7875 15.57375 68 15 C71.465 14.505 71.465 14.505 75 14 C76.64826111 16.96687001 77.44271087 19.65626525 78 23 C78.99 23 79.98 23 81 23 C81 22.34 81 21.68 81 21 C86.75 18 86.75 18 89 18 C89 17.34 89 16.68 89 16 C90.32 16 91.64 16 93 16 C93 15.34 93 14.68 93 14 C93.66 14 94.32 14 95 14 C95.28875 13.360625 95.5775 12.72125 95.875 12.0625 C97 10 97 10 99 9 C98.875 11.75 98.875 11.75 98 15 C95.25 17.125 95.25 17.125 92 19 C91.21625 19.639375 90.4325 20.27875 89.625 20.9375 C76.25779698 31.44030237 62.72722723 34.40147372 46.125 33.6875 C45.29145996 33.65317871 44.45791992 33.61885742 43.59912109 33.58349609 C42.80586426 33.53918457 42.01260742 33.49487305 41.1953125 33.44921875 C40.48391113 33.41143311 39.77250977 33.37364746 39.03955078 33.3347168 C36.7249178 32.95485544 35.07058187 32.07720125 33 31 C32.113125 30.896875 31.22625 30.79375 30.3125 30.6875 C21.89523566 28.94052061 13.74997369 23.12496053 9 16 C8.34 15.67 7.68 15.34 7 15 C7 13.68 7 12.36 7 11 C6.34 11 5.68 11 5 11 C3.98133771 9.34467377 2.98189187 7.67739862 2 6 C1.34 5.67 0.68 5.34 0 5 C0 3.35 0 1.7 0 0 Z " fill="#555D8F" transform="translate(200,273)"/>
<path d="M0 0 C1.98 0.99 3.96 1.98 6 3 C5.67 3.53625 5.34 4.0725 5 4.625 C3.77300796 7.5391061 3.85766714 9.86867708 4 13 C3.01 13.33 2.02 13.66 1 14 C1.020625 14.969375 1.04125 15.93875 1.0625 16.9375 C1 20 1 20 0 21 C0.66 21 1.32 21 2 21 C2.33 20.34 2.66 19.68 3 19 C9.27 19 15.54 19 22 19 C22 19.33 22 19.66 22 20 C20.86820312 20.06058594 19.73640625 20.12117188 18.5703125 20.18359375 C17.08852855 20.26799917 15.6067584 20.35264717 14.125 20.4375 C13.37863281 20.47681641 12.63226563 20.51613281 11.86328125 20.55664062 C7.80013136 20.71573624 7.80013136 20.71573624 4 22 C20.335 22.495 20.335 22.495 37 23 C38 27 38 27 37 29 C36.01 29 35.02 29 34 29 C34.495 32.465 34.495 32.465 35 36 C33.25 37.5625 33.25 37.5625 31 39 C28.875 38.875 28.875 38.875 27 38 C25 35 25 35 25 30 C18.07 29.505 18.07 29.505 11 29 C11.33 31.31 11.66 33.62 12 36 C10.25 37.5625 10.25 37.5625 8 39 C4.99611368 38.73495121 4.16695725 38.16695725 2 36 C1.875 32.375 1.875 32.375 2 29 C1.360625 28.835 0.72125 28.67 0.0625 28.5 C-2 27 -2 27 -2.625 23.625 C-2.67785156 22.92632812 -2.73070312 22.22765625 -2.78515625 21.5078125 C-3.04543257 18.46967795 -3.54745208 15.50503822 -4.0625 12.5 C-4.23910156 11.4584375 -4.41570312 10.416875 -4.59765625 9.34375 C-4.73042969 8.5703125 -4.86320313 7.796875 -5 7 C-3.68 7 -2.36 7 -1 7 C-1.020625 6.030625 -1.04125 5.06125 -1.0625 4.0625 C-1 1 -1 1 0 0 Z " fill="#59B3B9" transform="translate(237,236)"/>
<path d="M0 0 C2.31 0.33 4.62 0.66 7 1 C6.67 1.66 6.34 2.32 6 3 C5.34 2.67 4.68 2.34 4 2 C4 3.65 4 5.3 4 7 C4.99 7.33 5.98 7.66 7 8 C8.1875 10.5625 8.1875 10.5625 9 13 C9.66 13 10.32 13 11 13 C11.28875 13.639375 11.5775 14.27875 11.875 14.9375 C12.82823451 17.15206079 12.82823451 17.15206079 15 18 C15.433125 18.763125 15.86625 19.52625 16.3125 20.3125 C20.03494357 26.24083606 26.58051963 29.55257311 33 32 C35.70901132 32.18897843 35.70901132 32.18897843 38 32 C38 32.66 38 33.32 38 34 C59.37991248 35.38642006 76.99250095 35.59669039 94.3515625 21.26171875 C98.03894458 18.43938602 100.45255284 18 105 18 C95.73231094 30.35691874 82.01184348 36.29250997 67.1875 39.375 C47.1790357 42.14950705 29.7233997 36.25900054 13.75 24.1875 C7.53853741 19.03799715 1.49749458 12.82719951 -1 5 C-0.625 2.1875 -0.625 2.1875 0 0 Z " fill="#9EA0AC" transform="translate(196,271)"/>
<path d="M0 0 C1.53720703 -0.01836914 1.53720703 -0.01836914 3.10546875 -0.03710938 C8.72278333 -0.04795361 13.37471206 0.38456676 18.75 2.1875 C21.65817449 2.72302062 24.56916554 3.1789803 27.4921875 3.625 C28.23726563 3.810625 28.98234375 3.99625 29.75 4.1875 C30.245 5.1775 30.245 5.1775 30.75 6.1875 C31.41 6.1875 32.07 6.1875 32.75 6.1875 C32.75 7.1775 32.75 8.1675 32.75 9.1875 C36.1363251 10.69680183 36.1363251 10.69680183 39.75 11.1875 C42.08932406 11.83283078 44.42328146 12.49810191 46.75 13.1875 C46.75 13.8475 46.75 14.5075 46.75 15.1875 C45.43 15.1875 44.11 15.1875 42.75 15.1875 C43.41 15.8475 44.07 16.5075 44.75 17.1875 C45.74 17.1875 46.73 17.1875 47.75 17.1875 C47.255 19.6625 47.255 19.6625 46.75 22.1875 C42.58173049 20.77554564 39.80625696 18.73923846 36.4375 15.9375 C26.97580874 8.65927595 15.03132279 4.02556779 3.01171875 4.08984375 C1.41166992 4.09467773 1.41166992 4.09467773 -0.22070312 4.09960938 C-1.32349609 4.10798828 -2.42628906 4.11636719 -3.5625 4.125 C-5.24569336 4.13176758 -5.24569336 4.13176758 -6.96289062 4.13867188 C-9.7253151 4.15042687 -12.48762998 4.16685923 -15.25 4.1875 C-14.92 3.1975 -14.59 2.2075 -14.25 1.1875 C-9.58213642 -0.36845453 -4.88876541 0.00302897 0 0 Z " fill="#7B7F9D" transform="translate(251.25,185.8125)"/>
<path d="M0 0 C3.00059832 0.31132036 3.87454392 0.84714238 5.82421875 3.22265625 C6.43910156 4.15980469 7.05398437 5.09695313 7.6875 6.0625 C15.87224785 17.7767302 26.12600367 24.70320879 40 28 C43.69983891 28.28736613 47.30026999 28.26218559 51 28 C51 28.66 51 29.32 51 30 C48.03 30 45.06 30 42 30 C42 30.99 42 31.98 42 33 C29.61704952 31.87427723 20.19031637 27.31504814 11 19 C10.34 18.01 9.68 17.02 9 16 C8.34 15.67 7.68 15.34 7 15 C7 13.68 7 12.36 7 11 C6.34 11 5.68 11 5 11 C3.98133771 9.34467377 2.98189187 7.67739862 2 6 C1.34 5.67 0.68 5.34 0 5 C0 3.35 0 1.7 0 0 Z " fill="#6C769C" transform="translate(200,273)"/>
<path d="M0 0 C0.99 0 1.98 0 3 0 C2.690625 1.175625 2.690625 1.175625 2.375 2.375 C2.25125 3.24125 2.1275 4.1075 2 5 C2.66 5.66 3.32 6.32 4 7 C3.62911471 10.04880284 2.43147703 12.19841824 0.6875 14.6875 C0.27886719 15.28949219 -0.12976563 15.89148438 -0.55078125 16.51171875 C-2.32864731 18.33750573 -3.50328985 18.637808 -6 19 C-6.99 19 -7.98 19 -9 19 C-8.01 17.35 -7.02 15.7 -6 14 C-6.33 13.67 -6.66 13.34 -7 13 C-7.99 14.485 -7.99 14.485 -9 16 C-9.66 16 -10.32 16 -11 16 C-11 16.66 -11 17.32 -11 18 C-13 18 -13 18 -15.5 15.75 C-17.56954228 13.4735035 -18.85749293 11.80433554 -20 9 C-18.75 7 -18.75 7 -17 5 C-15.68 5 -14.36 5 -13 5 C-13 5.66 -13 6.32 -13 7 C-12.34 7 -11.68 7 -11 7 C-9.375 8.5 -9.375 8.5 -8 10 C-7.38125 9.175 -6.7625 8.35 -6.125 7.5 C-5.42375 6.675 -4.7225 5.85 -4 5 C-3.34 5 -2.68 5 -2 5 C-1.855625 4.360625 -1.71125 3.72125 -1.5625 3.0625 C-1 1 -1 1 0 0 Z " fill="#898C9D" transform="translate(304,271)"/>
<path d="M0 0 C1.485 0.99 1.485 0.99 3 2 C3.99 1.67 4.98 1.34 6 1 C6.99 1.33 7.98 1.66 9 2 C9 3.32 9 4.64 9 6 C10.98 5.34 12.96 4.68 15 4 C15.84495189 5.07429598 16.67554858 6.15989202 17.5 7.25 C17.9640625 7.85328125 18.428125 8.4565625 18.90625 9.078125 C20 11 20 11 20 15 C6.64885496 15.90687023 6.64885496 15.90687023 2.890625 13.83984375 C0.84063516 11.48235543 0.03709471 9.39876812 -0.25 6.3125 C-0.1675 5.549375 -0.085 4.78625 0 4 C-0.33 3.01 -0.66 2.02 -1 1 C-0.67 0.67 -0.34 0.34 0 0 Z " fill="#33408A" transform="translate(210,256)"/>
<path d="M0 0 C-1.05404064 3.01247418 -1.88851625 3.93353228 -4.6796875 5.59765625 C-5.73414063 6.08105469 -6.78859375 6.56445312 -7.875 7.0625 C-11.5939827 8.78492811 -14.73939679 10.53627067 -18 13 C-18.66 13 -19.32 13 -20 13 C-20 13.66 -20 14.32 -20 15 C-20.66 15 -21.32 15 -22 15 C-22 15.66 -22 16.32 -22 17 C-22.66 17 -23.32 17 -24 17 C-24.226875 17.515625 -24.45375 18.03125 -24.6875 18.5625 C-25.84286721 20.70818196 -27.06455738 22.67771051 -28.4375 24.6875 C-28.84871094 25.28949219 -29.25992188 25.89148438 -29.68359375 26.51171875 C-31 28 -31 28 -34 29 C-34.66 27.35 -35.32 25.7 -36 24 C-35.2575 23.29875 -34.515 22.5975 -33.75 21.875 C-30.91552534 19.08729821 -30.91552534 19.08729821 -28.875 15.75 C-27 13 -27 13 -24 12 C-24 11.34 -24 10.68 -24 10 C-22.9275 9.54625 -21.855 9.0925 -20.75 8.625 C-18.11937683 7.49911463 -15.53999604 6.32079794 -13 5 C-13 4.34 -13 3.68 -13 3 C-11.58603098 2.49242138 -10.16868271 1.99425075 -8.75 1.5 C-7.96109375 1.2215625 -7.1721875 0.943125 -6.359375 0.65625 C-4 0 -4 0 0 0 Z " fill="#686E9B" transform="translate(235,189)"/>
<path d="M0 0 C2.31 0.33 4.62 0.66 7 1 C6.67 1.66 6.34 2.32 6 3 C5.34 2.67 4.68 2.34 4 2 C4 3.65 4 5.3 4 7 C4.99 7.33 5.98 7.66 7 8 C8.1875 10.5625 8.1875 10.5625 9 13 C9.66 13 10.32 13 11 13 C11.28875 13.639375 11.5775 14.27875 11.875 14.9375 C12.82823451 17.15206079 12.82823451 17.15206079 15 18 C15.433125 18.763125 15.86625 19.52625 16.3125 20.3125 C20.01883383 26.21517981 26.05845446 28.64915279 32.1796875 31.44335938 C33.8222167 32.22443443 35.41589981 33.10635185 37 34 C37.33 34.99 37.66 35.98 38 37 C22.95121596 32.85613193 9.64380781 22.98689752 1 10 C-0.8236944 6.14615523 -1.18176787 4.13618753 0 0 Z " fill="#BABCC5" transform="translate(196,271)"/>
<path d="M0 0 C0.66 2.97 1.32 5.94 2 9 C-1.73661142 10.86830571 -3.03589176 11.508219 -7 11 C-8.8125 9.5 -8.8125 9.5 -10 8 C-10 8.99 -10 9.98 -10 11 C-10.9075 10.814375 -11.815 10.62875 -12.75 10.4375 C-15.68314324 10.04265379 -17.2644657 10.05308428 -20 11 C-20.95024979 7.30458414 -20.95024979 4.69541586 -20 1 C-19.278125 1.185625 -18.55625 1.37125 -17.8125 1.5625 C-14.87173027 2.01995307 -12.85896942 1.73516357 -10 1 C-9.67 1.99 -9.34 2.98 -9 4 C-8.67 3.01 -8.34 2.02 -8 1 C-5.29120665 -0.35439668 -2.99066732 -0.06501451 0 0 Z " fill="#79C5C7" transform="translate(266,290)"/>
<path d="M0 0 C5.55663998 3.70442665 10.70893769 9.73420931 12.66796875 16.20703125 C12.9375 18.125 12.9375 18.125 13 21 C12.01 21 11.02 21 10 21 C10 20.34 10 19.68 10 19 C9.05125 18.9175 8.1025 18.835 7.125 18.75 C4 18 4 18 2.625 15.9375 C2.41875 15.298125 2.2125 14.65875 2 14 C1.34 14 0.68 14 0 14 C-1.38938077 12.03852126 -2.7260411 10.03833424 -4 8 C-2.02 8.495 -2.02 8.495 0 9 C0 7.35 0 5.7 0 4 C-0.99 4 -1.98 4 -3 4 C-3.66 3.01 -4.32 2.02 -5 1 C-2.525 1.495 -2.525 1.495 0 2 C0 1.34 0 0.68 0 0 Z " fill="#828596" transform="translate(298,199)"/>
<path d="M0 0 C4.62 0 9.24 0 14 0 C15 4 15 4 14 6 C13.01 6 12.02 6 11 6 C11.33 8.31 11.66 10.62 12 13 C10.25 14.5625 10.25 14.5625 8 16 C5.875 15.875 5.875 15.875 4 15 C1.8480563 11.77208445 1.79913557 10.71599191 2 7 C0.94039063 7.02320313 -0.11921875 7.04640625 -1.2109375 7.0703125 C-2.5989513 7.08906944 -3.9869727 7.10726972 -5.375 7.125 C-6.42300781 7.15013672 -6.42300781 7.15013672 -7.4921875 7.17578125 C-9.32897486 7.19344267 -11.16601963 7.10303261 -13 7 C-13.66 6.34 -14.32 5.68 -15 5 C-6.09 4.67 2.82 4.34 12 4 C12 3.34 12 2.68 12 2 C8.04 1.67 4.08 1.34 0 1 C0 0.67 0 0.34 0 0 Z " fill="#98D6D8" transform="translate(260,259)"/>
<path d="M0 0 C4.61208965 0.40022266 8.1264777 0.97673102 11.1875 4.5625 C15.91330113 8.65819431 21.94851028 7.9099237 28 8 C28 8.33 28 8.66 28 9 C27.10796875 9.04898438 26.2159375 9.09796875 25.296875 9.1484375 C24.12640625 9.22320312 22.9559375 9.29796875 21.75 9.375 C20.00976562 9.47941406 20.00976562 9.47941406 18.234375 9.5859375 C15.23142685 9.97037289 13.44533323 10.26134564 11 12 C10.34 13.32 9.68 14.64 9 16 C8.34 13.03 7.68 10.06 7 7 C4.69 6.67 2.38 6.34 0 6 C-0.38218767 4.34385343 -0.71395102 2.67542976 -1 1 C-0.67 0.67 -0.34 0.34 0 0 Z " fill="#6FBEC2" transform="translate(218,211)"/>
<path d="M0 0 C7.48116133 0.28230797 12.65074114 3.18344183 19 7 C19 7.66 19 8.32 19 9 C19.61875 9.28875 20.2375 9.5775 20.875 9.875 C23 11 23 11 25 13 C20.83333333 14.38888889 20.83333333 14.38888889 18.125 13.125 C17.42375 12.75375 16.7225 12.3825 16 12 C15.2575 11.62875 14.515 11.2575 13.75 10.875 C13.1725 10.58625 12.595 10.2975 12 10 C12 9.01 12 8.02 12 7 C11.01 7.33 10.02 7.66 9 8 C8.67 7.525625 8.34 7.05125 8 6.5625 C4.90186733 4.14208385 1.87973208 4.31801083 -2 4 C-1.34 3.67 -0.68 3.34 0 3 C0 2.01 0 1.02 0 0 Z " fill="#9C9FAE" transform="translate(272,185)"/>
<path d="M0 0 C10.24656458 -0.38747513 19.03143819 0.41954024 29 3 C28.01 3.495 28.01 3.495 27 4 C27 4.99 27 5.98 27 7 C26.20078125 6.86722656 25.4015625 6.73445312 24.578125 6.59765625 C17.06185402 5.38905399 9.59458506 4.51998961 2 4 C2.33 3.34 2.66 2.68 3 2 C2.01 1.34 1.02 0.68 0 0 Z " fill="#CCCBCE" transform="translate(245,181)"/>
<path d="M0 0 C2 3 2 3 1.75 5.5625 C1 8 1 8 -1 10 C-3.4375 10.375 -3.4375 10.375 -6 10 C-7.875 8.375 -7.875 8.375 -9 6 C-8.8125 2.8125 -8.8125 2.8125 -8 0 C-5.06791253 -1.46604374 -3.11702298 -0.77925574 0 0 Z " fill="#7CC4C5" transform="translate(231,285)"/>
<path d="M0 0 C1.32 0 2.64 0 4 0 C4 0.66 4 1.32 4 2 C4.66 2 5.32 2 6 2 C7 3 8 4 9 5 C9.66 5 10.32 5 11 5 C10 7 9 9 8 11 C7.34 11 6.68 11 6 11 C6 11.66 6 12.32 6 13 C4 13 4 13 1.5 10.75 C-0.56954228 8.4735035 -1.85749293 6.80433554 -3 4 C-1.75 2 -1.75 2 0 0 Z " fill="#6EBBBA" transform="translate(287,276)"/>
<path d="M0 0 C0.9075 0.309375 1.815 0.61875 2.75 0.9375 C5.16563338 1.7272263 7.52780285 2.42949297 10 3 C9.30058404 6.14737182 8.23921302 9.02588876 7 12 C6.01 11.67 5.02 11.34 4 11 C4 10.34 4 9.68 4 9 C2.02 9.33 0.04 9.66 -2 10 C-1.85950482 8.52031676 -1.71245174 7.04125484 -1.5625 5.5625 C-1.48128906 4.73878906 -1.40007812 3.91507812 -1.31640625 3.06640625 C-1 1 -1 1 0 0 Z " fill="#6BBBBB" transform="translate(235,288)"/>
<path d="M0 0 C1.64826111 2.96687001 2.44271087 5.65626525 3 9 C1.02 10.32 -0.96 11.64 -3 13 C-3 12.34 -3 11.68 -3 11 C-3.99 10.67 -4.98 10.34 -6 10 C-7.40994899 7.39159436 -8.07986343 5.71877088 -7.75 2.75 C-6.24591627 -0.7595287 -3.36406307 -0.08852798 0 0 Z " fill="#4BAAAB" transform="translate(275,287)"/>
<path d="M0 0 C1.34888732 0.00015905 2.69778075 0.00584927 4.04663086 0.01586914 C5.10991859 0.01799156 5.10991859 0.01799156 6.19468689 0.02015686 C8.46699173 0.02577096 10.73919936 0.03832576 13.01147461 0.05102539 C14.54858257 0.05603858 16.08569206 0.0606018 17.62280273 0.06469727 C21.39823103 0.07574497 25.17358632 0.09301898 28.94897461 0.11352539 C28.94897461 0.77352539 28.94897461 1.43352539 28.94897461 2.11352539 C22.28669819 3.0664231 15.67100691 3.41942716 8.94897461 3.67602539 C7.88807617 3.71920898 6.82717773 3.76239258 5.73413086 3.80688477 C3.1391831 3.91208535 0.54415377 4.01422658 -2.05102539 4.11352539 C-2.05102539 3.45352539 -2.05102539 2.79352539 -2.05102539 2.11352539 C-2.71102539 1.78352539 -3.37102539 1.45352539 -4.05102539 1.11352539 C-3.05102539 0.11352539 -3.05102539 0.11352539 0 0 Z " fill="#3CADB3" transform="translate(243.051025390625,260.886474609375)"/>
<path d="M0 0 C1 3 1 3 0.375 5 C-1.38687736 7.56273071 -3.29434616 8.48986762 -6 10 C-6.763125 10.61875 -7.52625 11.2375 -8.3125 11.875 C-11.70083853 14.55415139 -15.30905761 16.7652855 -19 19 C-19.33 18.34 -19.66 17.68 -20 17 C-21.65 17.33 -23.3 17.66 -25 18 C-23.72485508 15.44971017 -22.59658703 15.06918289 -20 14 C-19.01 14 -18.02 14 -17 14 C-17 13.34 -17 12.68 -17 12 C-11.25 9 -11.25 9 -9 9 C-9 8.34 -9 7.68 -9 7 C-7.68 7 -6.36 7 -5 7 C-5 6.34 -5 5.68 -5 5 C-4.34 5 -3.68 5 -3 5 C-2.690625 4.360625 -2.38125 3.72125 -2.0625 3.0625 C-1 1 -1 1 0 0 Z " fill="#505D8E" transform="translate(298,282)"/>
<path d="M0 0 C1.02802734 0.00322266 2.05605469 0.00644531 3.11523438 0.00976562 C4.72301758 0.02233398 4.72301758 0.02233398 6.36328125 0.03515625 C7.44673828 0.03966797 8.53019531 0.04417969 9.64648438 0.04882812 C12.3229721 0.06061882 14.99934902 0.07707562 17.67578125 0.09765625 C18.00578125 1.08765625 18.33578125 2.07765625 18.67578125 3.09765625 C9.43578125 3.42765625 0.19578125 3.75765625 -9.32421875 4.09765625 C-8.99421875 3.10765625 -8.66421875 2.11765625 -8.32421875 1.09765625 C-5.26502487 0.07792496 -3.2000385 -0.01767977 0 0 Z " fill="#485084" transform="translate(245.32421875,185.90234375)"/>
<path d="M0 0 C0.66 0.66 1.32 1.32 2 2 C-2.35510633 6.72256843 -6.97145358 11.48373715 -13 14 C-13.99 13.67 -14.98 13.34 -16 13 C-15.62073124 10.38474375 -15.2303394 9.22032464 -13.29296875 7.3671875 C-12.59816406 6.87476563 -11.90335937 6.38234375 -11.1875 5.875 C-10.50042969 5.37742187 -9.81335938 4.87984375 -9.10546875 4.3671875 C-3.92 1 -3.92 1 -1 1 C-0.67 0.67 -0.34 0.34 0 0 Z " fill="#9597A3" transform="translate(299,288)"/>
<path d="M0 0 C1.98 0.99 3.96 1.98 6 3 C5.67 3.53625 5.34 4.0725 5 4.625 C3.77300796 7.5391061 3.85766714 9.86867708 4 13 C1.58716168 13.86172797 0.30534286 14.08724082 -2.1875 13.375 C-4 12 -4 12 -4.75 9.375 C-4.8325 8.59125 -4.915 7.8075 -5 7 C-3.68 7 -2.36 7 -1 7 C-1.020625 6.030625 -1.04125 5.06125 -1.0625 4.0625 C-1 1 -1 1 0 0 Z " fill="#52BAC3" transform="translate(237,236)"/>
<path d="M0 0 C1.32 0.33 2.64 0.66 4 1 C1.21406165 4.53599868 -1.67257788 7.96186379 -4.6328125 11.3515625 C-6.18563071 13.16555106 -6.18563071 13.16555106 -8 16 C-7.34 16.33 -6.68 16.66 -6 17 C-7.98 17.99 -7.98 17.99 -10 19 C-10.66 18.34 -11.32 17.68 -12 17 C-9.03935279 10.21518349 -5.09421447 5.34150644 0 0 Z " fill="#B5B8BC" transform="translate(207,199)"/>
<path d="M0 0 C0.33 0.66 0.66 1.32 1 2 C3.35599235 2.46751788 3.35599235 2.46751788 6.0625 2.625 C7.44115234 2.73714844 7.44115234 2.73714844 8.84765625 2.8515625 C9.55792969 2.90054688 10.26820313 2.94953125 11 3 C11 3.33 11 3.66 11 4 C9.06447266 4.09087891 9.06447266 4.09087891 7.08984375 4.18359375 C5.37238745 4.26805881 3.65493998 4.35270377 1.9375 4.4375 C1.08994141 4.47681641 0.24238281 4.51613281 -0.63085938 4.55664062 C-5.48000209 4.80003389 -10.20628212 5.22598042 -15 6 C-15 5.34 -15 4.68 -15 4 C-15.99 4.495 -15.99 4.495 -17 5 C-17.66 4.34 -18.32 3.68 -19 3 C-12.43345544 0.6969113 -6.96327638 -0.33693273 0 0 Z " fill="#B3B4C7" transform="translate(248,182)"/>
<path d="M0 0 C1.8125 1.3125 1.8125 1.3125 3 3 C3 3.99 3 4.98 3 6 C1.68 6 0.36 6 -1 6 C-1 5.34 -1 4.68 -1 4 C-1.99 4 -2.98 4 -4 4 C-4 4.66 -4 5.32 -4 6 C-3.01 6.33 -2.02 6.66 -1 7 C-1 7.99 -1 8.98 -1 10 C-3.375 10.1875 -3.375 10.1875 -6 10 C-8 7 -8 7 -7.75 3.875 C-7.37875 2.451875 -7.37875 2.451875 -7 1 C-4.45132831 -0.27433584 -2.82594567 -0.27570202 0 0 Z " fill="#6DB9B8" transform="translate(221,278)"/>
<path d="M0 0 C0 1.32 0 2.64 0 4 C-0.99 4 -1.98 4 -3 4 C-2.67 4.66 -2.34 5.32 -2 6 C-0.35 5.67 1.3 5.34 3 5 C3 8 3 8 1.5 9.6875 C1.005 10.120625 0.51 10.55375 0 11 C-1.98 10.34 -3.96 9.68 -6 9 C-6.6875 6.1875 -6.6875 6.1875 -7 3 C-4.91535587 -0.29154337 -4.06752403 0 0 0 Z " fill="#81BEBC" transform="translate(284,282)"/>
<path d="M0 0 C3.15776293 0.29093996 3.98509685 0.98277428 6.10546875 3.43359375 C6.79253906 4.42488281 7.47960937 5.41617187 8.1875 6.4375 C9.22970703 7.92056641 9.22970703 7.92056641 10.29296875 9.43359375 C12 12 12 12 13 14 C11.35 14.66 9.7 15.32 8 16 C7.67 14.35 7.34 12.7 7 11 C6.34 11 5.68 11 5 11 C3.98133771 9.34467377 2.98189187 7.67739862 2 6 C1.34 5.67 0.68 5.34 0 5 C0 3.35 0 1.7 0 0 Z " fill="#61679B" transform="translate(200,273)"/>
<path d="M0 0 C4.65786118 0.6294407 4.65786118 0.6294407 6.22265625 2.32421875 C9.27941809 5.20630849 13.29158145 6.66197036 17.08203125 8.39453125 C18.75718522 9.19172192 20.38319011 10.090286 22 11 C22.33 11.99 22.66 12.98 23 14 C14.5324761 11.66836299 6.74500738 7.68000622 0 2 C0 1.34 0 0.68 0 0 Z " fill="#C4C7CB" transform="translate(211,294)"/>
<path d="M0 0 C0.33 0 0.66 0 1 0 C1 1.65 1 3.3 1 5 C1.66 5.33 2.32 5.66 3 6 C3 6.33 3 6.66 3 7 C11.25 7.33 19.5 7.66 28 8 C24.67388261 10.2174116 23.61928457 10.24748716 19.74609375 10.23046875 C18.72708984 10.22853516 17.70808594 10.22660156 16.65820312 10.22460938 C15.59537109 10.21236328 14.53253906 10.20011719 13.4375 10.1875 C12.37080078 10.18685547 11.30410156 10.18621094 10.20507812 10.18554688 C2.28075953 10.14037976 2.28075953 10.14037976 0 9 C0 6.03 0 3.06 0 0 Z " fill="#B5B8BA" transform="translate(277,261)"/>
<path d="M0 0 C0 0.33 0 0.66 0 1 C2.475 1.495 2.475 1.495 5 2 C5 2.33 5 2.66 5 3 C-3.11388044 4.21521251 -10.85351368 3.76299944 -19 3 C-19 2.01 -19 1.02 -19 0 C-12.42150508 -0.95494281 -6.58183362 -0.8931507 0 0 Z " fill="#414B83" transform="translate(261,303)"/>
<path d="M0 0 C1.66611905 -0.042721 3.33382885 -0.04063832 5 0 C5.33 0.33 5.66 0.66 6 1 C7.84599688 1.39454223 9.70225822 1.74176866 11.5625 2.0625 C13.08037109 2.32740234 13.08037109 2.32740234 14.62890625 2.59765625 C15.41136719 2.73042969 16.19382812 2.86320313 17 3 C17 3.33 17 3.66 17 4 C15.02 4 13.04 4 11 4 C11.33 4.99 11.66 5.98 12 7 C6.72 5.68 1.44 4.36 -4 3 C-2.68 2.67 -1.36 2.34 0 2 C0 1.34 0 0.68 0 0 Z " fill="#6A709D" transform="translate(264,187)"/>
<path d="M0 0 C0.99 0.33 1.98 0.66 3 1 C3.38614349 7.8218683 2.00865708 13.49577707 0 20 C-0.99 20 -1.98 20 -3 20 C-2.125 13.125 -2.125 13.125 -1 12 C-0.76572222 9.98405418 -0.58663876 7.961526 -0.4375 5.9375 C-0.31181641 4.28041016 -0.31181641 4.28041016 -0.18359375 2.58984375 C-0.12300781 1.73519531 -0.06242187 0.88054687 0 0 Z " fill="#85A3A7" transform="translate(283,224)"/>
<path d="M0 0 C0.99 0.33 1.98 0.66 3 1 C2.88512252 2.58409994 2.75765492 4.16728963 2.625 5.75 C2.55539062 6.63171875 2.48578125 7.5134375 2.4140625 8.421875 C1.99415985 11.03636322 1.18733995 12.66130009 0 15 C-0.43098753 16.90485849 -0.80392764 18.82356582 -1.125 20.75 C-1.29257812 21.73484375 -1.46015625 22.7196875 -1.6328125 23.734375 C-1.75398438 24.48203125 -1.87515625 25.2296875 -2 26 C-2.99 26.33 -3.98 26.66 -5 27 C-4.125 20.125 -4.125 20.125 -3 19 C-2.7834375 17.329375 -2.7834375 17.329375 -2.5625 15.625 C-2 12 -2 12 0 9 C0.39387788 6.67612053 0.73486085 4.34206251 1 2 C0.01 1.67 -0.98 1.34 -2 1 C-1.34 0.67 -0.68 0.34 0 0 Z " fill="#58A7A9" transform="translate(281,225)"/>
<path d="M0 0 C3.3 0.66 6.6 1.32 10 2 C9.01 2.495 9.01 2.495 8 3 C8 3.99 8 4.98 8 6 C7.20078125 5.86722656 6.4015625 5.73445312 5.578125 5.59765625 C-1.93814598 4.38905399 -9.40541494 3.51998961 -17 3 C-17 2.67 -17 2.34 -17 2 C-14.95840905 1.9727384 -12.91671037 1.95348655 -10.875 1.9375 C-9.73804688 1.92589844 -8.60109375 1.91429687 -7.4296875 1.90234375 C-4.1870844 1.994673 -1.18067388 2.38610094 2 3 C2 2.34 2 1.68 2 1 C1.34 0.67 0.68 0.34 0 0 Z " fill="#D5D5E3" transform="translate(264,182)"/>
<path d="M0 0 C0.33 1.32 0.66 2.64 1 4 C-0.74294678 4.86846831 -2.49468663 5.71930627 -4.25 6.5625 C-5.22453125 7.03816406 -6.1990625 7.51382812 -7.203125 8.00390625 C-10.09856297 9.03510273 -11.19966161 9.11346788 -14 8 C-11.60490662 5.10067643 -9.68754757 4.49831724 -6 4 C-6.33 3.34 -6.66 2.68 -7 2 C-2.25 0 -2.25 0 0 0 Z " fill="#BCBDBF" transform="translate(283,299)"/>
<path d="M0 0 C0.33 0.66 0.66 1.32 1 2 C8.26 2.33 15.52 2.66 23 3 C23 3.33 23 3.66 23 4 C18.05 4.66 13.1 5.32 8 6 C8 5.34 8 4.68 8 4 C5.69 4.33 3.38 4.66 1 5 C0.34 3.68 -0.32 2.36 -1 1 C-0.67 0.67 -0.34 0.34 0 0 Z " fill="#878D9F" transform="translate(233,303)"/>
<path d="M0 0 C0.66 0.33 1.32 0.66 2 1 C1.67 1.33 1.34 1.66 1 2 C1.66 2.33 2.32 2.66 3 3 C3 3.66 3 4.32 3 5 C4.65 5 6.3 5 8 5 C8 5.33 8 5.66 8 6 C5.69 6.33 3.38 6.66 1 7 C1.33 6.01 1.66 5.02 2 4 C-3.445 5.485 -3.445 5.485 -9 7 C-8.34 5.02 -7.68 3.04 -7 1 C-5.5459375 1.0309375 -5.5459375 1.0309375 -4.0625 1.0625 C-1.12534105 1.35618499 -1.12534105 1.35618499 0 0 Z " fill="#A1A5B8" transform="translate(233,185)"/>
<path d="M0 0 C5.61 0 11.22 0 17 0 C17 0.66 17 1.32 17 2 C14.03 2 11.06 2 8 2 C8 2.99 8 3.98 8 5 C5.36 4.67 2.72 4.34 0 4 C0 2.68 0 1.36 0 0 Z " fill="#58618E" transform="translate(234,301)"/>
<path d="M0 0 C3.91402949 1.26941497 5.79072873 2.51167694 8 6 C7.67 6.66 7.34 7.32 7 8 C6.01 8.33 5.02 8.66 4 9 C1.10228415 7.46591514 0.1655191 6.53475402 -0.8125 3.375 C-0.874375 2.59125 -0.93625 1.8075 -1 1 C-0.67 0.67 -0.34 0.34 0 0 Z " fill="#5E628E" transform="translate(300,209)"/>
<path d="M0 0 C0.33 0.66 0.66 1.32 1 2 C1.66 2 2.32 2 3 2 C4 3 5 4 6 5 C6.66 5 7.32 5 8 5 C7 7 6 9 5 11 C4.34 11 3.68 11 3 11 C3 11.66 3 12.32 3 13 C2.34 13 1.68 13 1 13 C0.375 11.125 0.375 11.125 0 9 C0.66 8.34 1.32 7.68 2 7 C1.34 6.34 0.68 5.68 0 5 C-0.125 2.375 -0.125 2.375 0 0 Z " fill="#7FB1BB" transform="translate(290,276)"/>
<path d="M0 0 C0.90105469 0.00902344 1.80210937 0.01804688 2.73046875 0.02734375 C3.41753906 0.03894531 4.10460937 0.05054688 4.8125 0.0625 C3.4375 2.0625 3.4375 2.0625 0.8125 4.0625 C-2.5455469 4.42041096 -5.82286357 4.29365823 -9.1875 4.0625 C-8.8575 3.0725 -8.5275 2.0825 -8.1875 1.0625 C-5.17259443 0.05753148 -3.14568308 -0.04085303 0 0 Z " fill="#4F548B" transform="translate(245.1875,185.9375)"/>
<path d="M0 0 C1.65 0.33 3.3 0.66 5 1 C5.93423645 4.01031744 6.04449911 4.86650268 5 8 C3.35 7.67 1.7 7.34 0 7 C-1.125 2.25 -1.125 2.25 0 0 Z " fill="#3AAFB7" transform="translate(265,264)"/>
<path d="M0 0 C0.33 1.32 0.66 2.64 1 4 C-1.45898655 4.08076963 -3.91533742 4.14037143 -6.375 4.1875 C-7.42300781 4.22520508 -7.42300781 4.22520508 -8.4921875 4.26367188 C-10.5234375 4.29296875 -10.5234375 4.29296875 -14 4 C-14.66 3.01 -15.32 2.02 -16 1 C-10.72 1.33 -5.44 1.66 0 2 C0 1.34 0 0.68 0 0 Z " fill="#5C6798" transform="translate(229,267)"/>
<path d="M0 0 C0.66 1.32 1.32 2.64 2 4 C-0.64 4.33 -3.28 4.66 -6 5 C-6.33 5.99 -6.66 6.98 -7 8 C-7.33 6.02 -7.66 4.04 -8 2 C-4.77208445 -0.1519437 -3.71599191 -0.20086443 0 0 Z " fill="#75C4C4" transform="translate(275,287)"/>
<path d="M0 0 C-3.70821628 2.35108558 -7.48605238 2.43155058 -11.75 2.625 C-12.79607422 2.68300781 -12.79607422 2.68300781 -13.86328125 2.7421875 C-15.57510818 2.83598624 -17.28751682 2.91906174 -19 3 C-18.01 2.67 -17.02 2.34 -16 2 C-16 1.34 -16 0.68 -16 0 C-10.31302429 -0.91397824 -5.68697571 -0.91397824 0 0 Z " fill="#C6C6C8" transform="translate(269,308)"/>
<path d="M0 0 C0.66 0 1.32 0 2 0 C2.2475 0.804375 2.495 1.60875 2.75 2.4375 C3.72238859 5.171081 3.72238859 5.171081 6.125 5.8125 C7.053125 5.9053125 7.053125 5.9053125 8 6 C8.33 4.35 8.66 2.7 9 1 C9.33 1 9.66 1 10 1 C10.25 3.3125 10.25 3.3125 10 6 C8.25 7.875 8.25 7.875 6 9 C3.875 8.875 3.875 8.875 2 8 C-0.1519437 4.77208445 -0.20086443 3.71599191 0 0 Z " fill="#7CC2C3" transform="translate(262,266)"/>
<path d="M0 0 C0.66 0.33 1.32 0.66 2 1 C1.67 2.65 1.34 4.3 1 6 C1.99 6 2.98 6 4 6 C4.33 5.34 4.66 4.68 5 4 C5.33 4.99 5.66 5.98 6 7 C0.47322267 7.19392201 -3.75614911 6.7479503 -9 5 C-5.91190305 3.23537317 -4.76687864 3 -1 3 C-0.67 2.01 -0.34 1.02 0 0 Z " fill="#2C3C89" transform="translate(223,262)"/>
<path d="M0 0 C0.66 0.66 1.32 1.32 2 2 C1.09972412 3.03531726 0.17906965 4.05294165 -0.75 5.0625 C-1.51570313 5.91521484 -1.51570313 5.91521484 -2.296875 6.78515625 C-4 8 -4 8 -6.203125 7.68359375 C-6.79609375 7.45800781 -7.3890625 7.23242188 -8 7 C-7.75 5.125 -7.75 5.125 -7 3 C-4.85331506 1.61504198 -3.56128588 1 -1 1 C-0.67 0.67 -0.34 0.34 0 0 Z " fill="#8C919B" transform="translate(299,288)"/>
<path d="M0 0 C0.33 0.66 0.66 1.32 1 2 C3.31 2 5.62 2 8 2 C8 2.33 8 2.66 8 3 C3.545 3.495 3.545 3.495 -1 4 C-1 6.97 -1 9.94 -1 13 C3.29 13 7.58 13 12 13 C12 13.33 12 13.66 12 14 C7.38 14 2.76 14 -2 14 C-2.25 3.375 -2.25 3.375 0 0 Z " fill="#97A0D4" transform="translate(200,229)"/>
<path d="M0 0 C3.24299151 2.38957269 5.50902342 4.2047869 7 8 C6.01 8.33 5.02 8.66 4 9 C3.67 8.34 3.34 7.68 3 7 C2.01 7 1.02 7 0 7 C0 6.01 0 5.02 0 4 C-0.99 4 -1.98 4 -3 4 C-3.66 3.01 -4.32 2.02 -5 1 C-2.525 1.495 -2.525 1.495 0 2 C0 1.34 0 0.68 0 0 Z " fill="#9EA1AB" transform="translate(298,199)"/>
<path d="M0 0 C2.97 0.495 2.97 0.495 6 1 C5.67 1.99 5.34 2.98 5 4 C3.68 3.67 2.36 3.34 1 3 C1 4.32 1 5.64 1 7 C1.99 7.33 2.98 7.66 4 8 C2.35 8 0.7 8 -1 8 C-1.625 5.6875 -1.625 5.6875 -2 3 C-1.34 2.01 -0.68 1.02 0 0 Z " fill="#4EB4B5" transform="translate(225,286)"/>
<path d="M0 0 C0.66 0.33 1.32 0.66 2 1 C1.4739075 4.78786597 0.61896089 7.17152224 -2 10 C-2.66 10 -3.32 10 -4 10 C-4.33 11.65 -4.66 13.3 -5 15 C-5.66 14.67 -6.32 14.34 -7 14 C-6.1875 11.5625 -6.1875 11.5625 -5 9 C-4.01 8.67 -3.02 8.34 -2 8 C-2 6.35 -2 4.7 -2 3 C-1.34 3 -0.68 3 0 3 C0 2.01 0 1.02 0 0 Z " fill="#535B98" transform="translate(226,240)"/>
<path d="M0 0 C-0.8125 1.9375 -0.8125 1.9375 -2 4 C-5.47325181 5.1577506 -8.36067448 5.06866652 -12 5 C-8.00903919 0.58143625 -5.8802583 0 0 0 Z " fill="#4E518B" transform="translate(235,189)"/>
<path d="M0 0 C1.32 0 2.64 0 4 0 C4.33 2.97 4.66 5.94 5 9 C6.32 8.67 7.64 8.34 9 8 C9 8.66 9 9.32 9 10 C6.69 9.67 4.38 9.34 2 9 C0.875 3.25 0.875 3.25 2 1 C1.34 0.67 0.68 0.34 0 0 Z " fill="#7AC6C9" transform="translate(272,216)"/>
<path d="M0 0 C3.19902639 -0.08886184 5.92677456 0.08941469 9 1 C9.33 2.32 9.66 3.64 10 5 C6.63295715 5.2295711 4.58629732 5.33943529 1.625 3.625 C1.08875 3.08875 0.5525 2.5525 0 2 C0 1.34 0 0.68 0 0 Z " fill="#4A4F88" transform="translate(275,191)"/>
<path d="M0 0 C1 3 1 3 0.375 5 C-1.39736265 7.57798204 -3.20545486 8.63680725 -6 10 C-6.99 10 -7.98 10 -9 10 C-9 9.01 -9 8.02 -9 7 C-7.68 7 -6.36 7 -5 7 C-5 6.34 -5 5.68 -5 5 C-4.34 5 -3.68 5 -3 5 C-2.690625 4.360625 -2.38125 3.72125 -2.0625 3.0625 C-1 1 -1 1 0 0 Z " fill="#475182" transform="translate(298,282)"/>
<path d="M0 0 C1.875 0.3125 1.875 0.3125 4 1 C6.1519437 4.22791555 6.20086443 5.28400809 6 9 C2.96101874 7.98700625 1.87860833 7.5048111 0 5 C-0.1875 2.3125 -0.1875 2.3125 0 0 Z " fill="#4B5289" transform="translate(200,273)"/>
<path d="M0 0 C2.33944736 0.28730055 4.6739143 0.61936779 7 1 C6.67 1.66 6.34 2.32 6 3 C5.34 2.67 4.68 2.34 4 2 C4 3.65 4 5.3 4 7 C2.68 7 1.36 7 0 7 C-0.38133299 5.0085944 -0.71325582 3.00720923 -1 1 C-0.67 0.67 -0.34 0.34 0 0 Z " fill="#9394AE" transform="translate(196,271)"/>
<path d="M0 0 C3 1 3 1 4.6875 3.8125 C6 7 6 7 6 11 C5.01 11 4.02 11 3 11 C3 10.34 3 9.68 3 9 C2.34 9 1.68 9 1 9 C1.33 8.01 1.66 7.02 2 6 C1.11680706 2.84979639 1.11680706 2.84979639 0 0 Z " fill="#979AA1" transform="translate(305,209)"/>
<path d="M0 0 C3 1 3 1 6 3 C4.71475739 3.86380259 3.42157581 4.71580369 2.125 5.5625 C1.40570313 6.03816406 0.68640625 6.51382813 -0.0546875 7.00390625 C-0.69664062 7.33261719 -1.33859375 7.66132813 -2 8 C-2.66 7.67 -3.32 7.34 -4 7 C-3.6875 5.0625 -3.6875 5.0625 -3 3 C-2.01 2.67 -1.02 2.34 0 2 C0 1.34 0 0.68 0 0 Z " fill="#6F73A0" transform="translate(222,192)"/>
<path d="M0 0 C-0.66 0.66 -1.32 1.32 -2 2 C-5.38297413 1.82194873 -6.76272061 1.21162756 -9.3125 -1.0625 C-9.869375 -1.701875 -10.42625 -2.34125 -11 -3 C-6.57716576 -5.12296044 -3.74455635 -2.37635307 0 0 Z " fill="#5C6394" transform="translate(292,199)"/>
<path d="M0 0 C2.31 0.33 4.62 0.66 7 1 C7.33 2.32 7.66 3.64 8 5 C1.25 4.125 1.25 4.125 -1 3 C-0.67 2.01 -0.34 1.02 0 0 Z " fill="#505A8C" transform="translate(225,297)"/>
<path d="M0 0 C2.27618181 2.1677922 4.32954824 4.32727719 6 7 C5.67 7.99 5.34 8.98 5 10 C2.03595495 7.19195732 -0.44499019 4.81684226 -2 1 C-1.34 0.67 -0.68 0.34 0 0 Z " fill="#C4C7CA" transform="translate(198,277)"/>
<path d="M0 0 C0.66 0.66 1.32 1.32 2 2 C1.34 2.66 0.68 3.32 0 4 C-0.33 4.99 -0.66 5.98 -1 7 C-1.33 7.66 -1.66 8.32 -2 9 C-3.32 8.67 -4.64 8.34 -6 8 C-4.73058503 4.08597051 -3.48832306 2.20927127 0 0 Z " fill="#56598B" transform="translate(205,207)"/>
<path d="M0 0 C0.66 0 1.32 0 2 0 C3 3 3 3 2.109375 4.7890625 C1.66078125 5.39492187 1.2121875 6.00078125 0.75 6.625 C0.31171875 7.23601562 -0.1265625 7.84703125 -0.578125 8.4765625 C-2 10 -2 10 -5 11 C-5.33 10.34 -5.66 9.68 -6 9 C-5.34 8.566875 -4.68 8.13375 -4 7.6875 C-3.01 6.8521875 -3.01 6.8521875 -2 6 C-2 5.01 -2 4.02 -2 3 C-1.34 2.34 -0.68 1.68 0 1 C0 0.67 0 0.34 0 0 Z " fill="#696F9C" transform="translate(206,207)"/>
<path d="M0 0 C4 0 4 0 6 1 C5.67 2.65 5.34 4.3 5 6 C2.525 5.01 2.525 5.01 0 4 C0 2.68 0 1.36 0 0 Z " fill="#505489" transform="translate(293,202)"/>
<path d="M0 0 C0.99 0.33 1.98 0.66 3 1 C4.1875 3.5625 4.1875 3.5625 5 6 C5.66 6 6.32 6 7 6 C6.67 7.32 6.34 8.64 6 10 C1.96074389 7.30716259 0.99524957 4.64449799 0 0 Z " fill="#9398B2" transform="translate(200,278)"/>
<path d="M0 0 C2.83374881 3.20336822 3.5205537 5.78087253 4 10 C4.99 10.33 5.98 10.66 7 11 C5.68 11.33 4.36 11.66 3 12 C2.29773859 10.75823305 1.61370891 9.50614401 0.9375 8.25 C0.36322266 7.20585937 0.36322266 7.20585937 -0.22265625 6.140625 C-1.1312406 3.63859372 -0.88336837 2.4667645 0 0 Z " fill="#76BFC2" transform="translate(246,220)"/>
<path d="M0 0 C-0.33 2.31 -0.66 4.62 -1 7 C-2.7074998 5.71937515 -4.37373596 4.38232443 -6 3 C-6 2.34 -6 1.68 -6 1 C-4 0 -4 0 0 0 Z " fill="#4AB1B3" transform="translate(274,217)"/>
<path d="M0 0 C2.0625 0.4375 2.0625 0.4375 4 1 C1.50174717 4.21203935 -1.0702992 7.17493137 -4 10 C-3.52449439 8.51965236 -3.04448784 7.04074979 -2.5625 5.5625 C-2.29566406 4.73878906 -2.02882812 3.91507813 -1.75390625 3.06640625 C-1 1 -1 1 0 0 Z " fill="#9B9FAD" transform="translate(207,199)"/>
<path d="M0 0 C1 3 1 3 1 7 C-1.49064888 7.68707555 -3.37886292 8 -6 8 C-4.02 5.36 -2.04 2.72 0 0 Z " fill="#7D8293" transform="translate(301,282)"/>
<path d="M0 0 C4.49652778 -0.36458333 4.49652778 -0.36458333 6.8125 1.3125 C8 3 8 3 8 6 C6.68 6 5.36 6 4 6 C4 5.34 4 4.68 4 4 C3.34 3.67 2.68 3.34 2 3 C2.66 3 3.32 3 4 3 C4 2.34 4 1.68 4 1 C2.68 0.67 1.36 0.34 0 0 Z " fill="#90CECC" transform="translate(216,278)"/>
<path d="M0 0 C2.475 0.495 2.475 0.495 5 1 C5 2.65 5 4.3 5 6 C2.525 5.01 2.525 5.01 0 4 C0 2.68 0 1.36 0 0 Z " fill="#46AEB3" transform="translate(233,244)"/>
<path d="M0 0 C0.33 0.66 0.66 1.32 1 2 C2.65 1.67 4.3 1.34 6 1 C6.33 1.66 6.66 2.32 7 3 C2.545 4.485 2.545 4.485 -2 6 C-2 4.68 -2 3.36 -2 2 C-1.34 2 -0.68 2 0 2 C0 1.34 0 0.68 0 0 Z " fill="#55B6BF" transform="translate(248,230)"/>
<path d="M0 0 C1.32 0.33 2.64 0.66 4 1 C3.01 2.485 3.01 2.485 2 4 C2.66 4.33 3.32 4.66 4 5 C2.02 5.99 2.02 5.99 0 7 C-0.66 6.34 -1.32 5.68 -2 5 C-1.34 3.35 -0.68 1.7 0 0 Z " fill="#A2A5B2" transform="translate(197,211)"/>
<path d="M0 0 C0.99 0.33 1.98 0.66 3 1 C2.375 2.9375 2.375 2.9375 1 5 C-2.125 5.75 -2.125 5.75 -5 6 C-3.35 4.02 -1.7 2.04 0 0 Z " fill="#535691" transform="translate(216,197)"/>
<path d="M0 0 C0.33 1.32 0.66 2.64 1 4 C-0.65 4.33 -2.3 4.66 -4 5 C-4 4.34 -4 3.68 -4 3 C-4.99 2.67 -5.98 2.34 -7 2 C-2.25 0 -2.25 0 0 0 Z " fill="#B3B2BF" transform="translate(283,299)"/>
<path d="M0 0 C0.99 0 1.98 0 3 0 C3 0.99 3 1.98 3 3 C3.66 3 4.32 3 5 3 C4.67 3.99 4.34 4.98 4 6 C3.01 6 2.02 6 1 6 C0.34 5.34 -0.32 4.68 -1 4 C-0.625 1.875 -0.625 1.875 0 0 Z " fill="#616692" transform="translate(299,278)"/>
<path d="M0 0 C0.99 0 1.98 0 3 0 C2.34 2.31 1.68 4.62 1 7 C0.01 6.67 -0.98 6.34 -2 6 C-1.125 1.125 -1.125 1.125 0 0 Z " fill="#4E5683" transform="translate(304,271)"/>
<path d="M0 0 C1.65 1.65 3.3 3.3 5 5 C4.67 5.66 4.34 6.32 4 7 C1.9375 7.625 1.9375 7.625 0 8 C0 5.36 0 2.72 0 0 Z " fill="#53609C" transform="translate(224,260)"/>
<path d="M0 0 C0.33 0.66 0.66 1.32 1 2 C1.99 2 2.98 2 4 2 C3 4 2 6 1 8 C0.34 8 -0.32 8 -1 8 C-1.125 2.25 -1.125 2.25 0 0 Z " fill="#6FBEC0" transform="translate(262,224)"/>
<path d="M0 0 C0.66 0.33 1.32 0.66 2 1 C0.75453595 4.73639216 -0.63404953 5.18756513 -4 7 C-4 6.34 -4 5.68 -4 5 C-4.99 4.67 -5.98 4.34 -7 4 C-4 2 -4 2 -1 2 C-0.67 1.34 -0.34 0.68 0 0 Z " fill="#83C2C5" transform="translate(276,293)"/>
<path d="M0 0 C0.33 0 0.66 0 1 0 C1.25 2.3125 1.25 2.3125 1 5 C-0.8125 6.8125 -0.8125 6.8125 -3 8 C-3.99 8 -4.98 8 -6 8 C-6 7.01 -6 6.02 -6 5 C-4.02 4.67 -2.04 4.34 0 4 C0 2.68 0 1.36 0 0 Z " fill="#8DC7C7" transform="translate(248,267)"/>
<path d="M0 0 C0.99 0.99 1.98 1.98 3 3 C2.34 4.65 1.68 6.3 1 8 C-0.32 8 -1.64 8 -3 8 C-2.67 6.68 -2.34 5.36 -2 4 C-1.34 4 -0.68 4 0 4 C0 2.68 0 1.36 0 0 Z " fill="#465095" transform="translate(221,255)"/>
<path d="M0 0 C2.475 0.99 2.475 0.99 5 2 C5 3.98 5 5.96 5 8 C4.34 8 3.68 8 3 8 C3 8.66 3 9.32 3 10 C2.34 9.67 1.68 9.34 1 9 C1.20625 8.071875 1.4125 7.14375 1.625 6.1875 C2.36692966 2.84826598 2.36692966 2.84826598 0 0 Z " fill="#6F7CA7" transform="translate(212,232)"/>
<path d="M0 0 C0 0.99 0 1.98 0 3 C-2.31 3.33 -4.62 3.66 -7 4 C-7.33 3.01 -7.66 2.02 -8 1 C-5.23735711 0.40267181 -2.83967231 0 0 0 Z " fill="#66BBBD" transform="translate(266,297)"/>
<path d="M0 0 C0.99 0.33 1.98 0.66 3 1 C2.34 1 1.68 1 1 1 C1.25561323 3.3431213 1.59270772 5.67843403 2 8 C2.66 8.33 3.32 8.66 4 9 C2.68 9.33 1.36 9.66 0 10 C-0.95024979 6.30458414 -0.95024979 3.69541586 0 0 Z " fill="#7BCBCD" transform="translate(246,291)"/>
<path d="M0 0 C2.31 0.33 4.62 0.66 7 1 C7 1.33 7 1.66 7 2 C5.02 2 3.04 2 1 2 C1.66 3.32 2.32 4.64 3 6 C1.68 5.67 0.36 5.34 -1 5 C-0.67 3.35 -0.34 1.7 0 0 Z " fill="#8AC5C8" transform="translate(218,211)"/>
<path d="M0 0 C3.465 1.485 3.465 1.485 7 3 C6.67 3.99 6.34 4.98 6 6 C6 5.34 6 4.68 6 4 C4.02 4.33 2.04 4.66 0 5 C0 3.35 0 1.7 0 0 Z " fill="#8ECDCC" transform="translate(233,293)"/>
<path d="M0 0 C-1.32 0.33 -2.64 0.66 -4 1 C-4.33 2.32 -4.66 3.64 -5 5 C-5.99 4.67 -6.98 4.34 -8 4 C-8.33 3.01 -8.66 2.02 -9 1 C-6.04335481 -0.4783226 -3.25770263 -0.06032783 0 0 Z " fill="#44508C" transform="translate(215,219)"/>
<path d="M0 0 C0 0.66 0 1.32 0 2 C1.32 2.33 2.64 2.66 4 3 C1.69 3.33 -0.62 3.66 -3 4 C-3 3.34 -3 2.68 -3 2 C-3.99 2.495 -3.99 2.495 -5 3 C-5.66 2.34 -6.32 1.68 -7 1 C-4 0 -4 0 0 0 Z " fill="#C9CDD7" transform="translate(236,184)"/>
<path d="M0 0 C0.99 0 1.98 0 3 0 C4.125 4.75 4.125 4.75 3 7 C2.34 7 1.68 7 1 7 C0.67 4.69 0.34 2.38 0 0 Z " fill="#4AAAAA" transform="translate(247,292)"/>
<path d="M0 0 C0.53625 0.391875 1.0725 0.78375 1.625 1.1875 C-2.125 3.1875 -2.125 3.1875 -4.375 3.1875 C-5.71283393 3.50228446 -7.04703709 3.83337656 -8.375 4.1875 C-8.375 3.5275 -8.375 2.8675 -8.375 2.1875 C-2.95961538 -1.0125 -2.95961538 -1.0125 0 0 Z " fill="#5F79A1" transform="translate(289.375,291.8125)"/>
<path d="M0 0 C2.375 0.6875 2.375 0.6875 5 2 C6.3125 4.625 6.3125 4.625 7 7 C6.34 7.66 5.68 8.32 5 9 C3.35 6.03 1.7 3.06 0 0 Z " fill="#656B9F" transform="translate(204,254)"/>
<path d="M0 0 C0.99 0.33 1.98 0.66 3 1 C3.33 2.98 3.66 4.96 4 7 C3.01 7.33 2.02 7.66 1 8 C0.67 5.36 0.34 2.72 0 0 Z " fill="#45B5C1" transform="translate(237,242)"/>
<path d="M0 0 C1.65 0 3.3 0 5 0 C5.33 1.32 5.66 2.64 6 4 C4.35 3.67 2.7 3.34 1 3 C0.67 2.01 0.34 1.02 0 0 Z " fill="#45A9B4" transform="translate(219,213)"/>
<path d="M0 0 C0.66 0.33 1.32 0.66 2 1 C2 2.98 2 4.96 2 7 C1.34 7 0.68 7 0 7 C-1.38938077 5.03852126 -2.7260411 3.03833424 -4 1 C-2.68 1.33 -1.36 1.66 0 2 C0 1.34 0 0.68 0 0 Z " fill="#8285AD" transform="translate(298,206)"/>
<path d="M0 0 C0 1.65 0 3.3 0 5 C-1.875 5.625 -1.875 5.625 -4 6 C-4.66 5.34 -5.32 4.68 -6 4 C-1.125 0 -1.125 0 0 0 Z " fill="#BEBEC3" transform="translate(214,194)"/>
<path d="M0 0 C1.98 0.66 3.96 1.32 6 2 C6 2.99 6 3.98 6 5 C4.35 4.67 2.7 4.34 1 4 C0.67 2.68 0.34 1.36 0 0 Z " fill="#ACACB0" transform="translate(282,188)"/>
<path d="M0 0 C0.33 0.66 0.66 1.32 1 2 C3.52733235 2.65555119 3.52733235 2.65555119 6 3 C6 3.66 6 4.32 6 5 C4.35 5 2.7 5 1 5 C0.34 3.68 -0.32 2.36 -1 1 C-0.67 0.67 -0.34 0.34 0 0 Z " fill="#9B9FAC" transform="translate(233,303)"/>
<path d="M0 0 C0 0.99 0 1.98 0 3 C-1.65 3 -3.3 3 -5 3 C-5.33 2.01 -5.66 1.02 -6 0 C-3 -1 -3 -1 0 0 Z " fill="#8FC7C7" transform="translate(220,285)"/>
<path d="M0 0 C2.475 0.495 2.475 0.495 5 1 C5.625 2.8125 5.625 2.8125 6 5 C5.01 6.485 5.01 6.485 4 8 C3.67 6.02 3.34 4.04 3 2 C2.01 2 1.02 2 0 2 C0 1.34 0 0.68 0 0 Z " fill="#47AAAF" transform="translate(265,264)"/>
<path d="M0 0 C0.99 0.33 1.98 0.66 3 1 C3 3.64 3 6.28 3 9 C2.01 8.34 1.02 7.68 0 7 C-0.1875 3.375 -0.1875 3.375 0 0 Z " fill="#8EA6AD" transform="translate(283,224)"/>
<path d="M0 0 C1.98 0 3.96 0 6 0 C6 1.65 6 3.3 6 5 C5.34 5 4.68 5 4 5 C3.67 4.34 3.34 3.68 3 3 C2.01 2.67 1.02 2.34 0 2 C0 1.34 0 0.68 0 0 Z " fill="#36ADB2" transform="translate(239,221)"/>
<path d="M0 0 C0.66 0 1.32 0 2 0 C2.33 1.65 2.66 3.3 3 5 C2.01 5.33 1.02 5.66 0 6 C-0.66 5.67 -1.32 5.34 -2 5 C-2 4.34 -2 3.68 -2 3 C-1.34 3 -0.68 3 0 3 C0 2.01 0 1.02 0 0 Z " fill="#4BAAAE" transform="translate(260,293)"/>
<path d="M0 0 C2 3.75 2 3.75 2 6 C2.99 6.33 3.98 6.66 5 7 C3.35 7 1.7 7 0 7 C-1.125 2.25 -1.125 2.25 0 0 Z " fill="#5DADAC" transform="translate(224,287)"/>
<path d="M0 0 C1.32 0 2.64 0 4 0 C3.34 1.32 2.68 2.64 2 4 C0.68 4 -0.64 4 -2 4 C-1.34 2.68 -0.68 1.36 0 0 Z " fill="#46B5BB" transform="translate(258,239)"/>
<path d="M0 0 C0.33 0.66 0.66 1.32 1 2 C2.32467746 2.6837045 3.65863633 3.34964186 5 4 C5.66 4.66 6.32 5.32 7 6 C6.01 6.33 5.02 6.66 4 7 C2.35 5.35 0.7 3.7 -1 2 C-0.67 1.34 -0.34 0.68 0 0 Z " fill="#A9AAB1" transform="translate(290,192)"/>
<path d="M0 0 C2.31 0 4.62 0 7 0 C5.75 1.5 5.75 1.5 4 3 C2.68 3 1.36 3 0 3 C0 2.01 0 1.02 0 0 Z " fill="#BABABC" transform="translate(236,183)"/>
</svg>
